<?xml version="1.0" encoding="UTF-8" standalone="no"?>
<!DOCTYPE svg PUBLIC "-//W3C//DTD SVG 1.1//EN" "http://www.w3.org/Graphics/SVG/1.1/DTD/svg11.dtd">
<svg width="100%" height="100%" viewBox="0 0 531 97" version="1.1" xmlns="http://www.w3.org/2000/svg" xmlns:xlink="http://www.w3.org/1999/xlink" xml:space="preserve" xmlns:serif="http://www.serif.com/" style="fill-rule:evenodd;clip-rule:evenodd;stroke-linejoin:round;stroke-miterlimit:2;">
    <g transform="matrix(1,0,0,1,-7889.64,-3201.24)">
        <g>
            <g transform="matrix(1.01863,0,0,1.01863,3894.85,1092.08)">
                <path d="M4182.98,2146.68C4179.92,2146.68 4177.55,2149.18 4177.55,2152.14C4177.55,2155.1 4179.9,2157.57 4182.94,2157.57C4186,2157.57 4188.39,2155.07 4188.39,2152.11C4188.39,2149.13 4186.02,2146.68 4182.98,2146.68ZM4182.94,2156.11C4180.72,2156.11 4179.01,2154.32 4179.01,2152.14C4179.01,2149.97 4180.74,2148.14 4182.98,2148.14C4185.2,2148.14 4186.93,2149.93 4186.93,2152.11C4186.93,2154.29 4185.2,2156.11 4182.94,2156.11ZM4185.23,2151.2C4185.23,2150.09 4184.47,2149.45 4183.14,2149.45L4180.9,2149.45L4180.9,2154.41L4182.35,2154.41L4182.35,2153.07L4183.09,2153.07L4183.76,2154.41L4185.41,2154.41L4184.39,2152.8C4184.93,2152.49 4185.23,2151.95 4185.23,2151.2ZM4182.35,2151.97L4182.35,2150.56L4183.14,2150.56C4183.59,2150.56 4183.84,2150.81 4183.84,2151.26C4183.84,2151.71 4183.59,2151.97 4183.14,2151.97L4182.35,2151.97Z" style="fill:white;fill-rule:nonzero;"/>
            </g>
            <g transform="matrix(1.55853,0,0,1.55853,5905.75,2083.98)">
                <g>
                    <g transform="matrix(1,0,0,1,1213.44,-72.6825)">
                        <path d="M97.44,836.68L89.937,840.391L89.937,812.515L97.44,808.804L97.44,836.68ZM107.627,831.642L100.123,835.353L100.123,807.476L107.621,803.768L107.627,803.768L107.627,831.642ZM110.31,830.315L110.31,802.438L117.813,798.727L117.813,826.604L110.31,830.315Z" style="fill:white;"/>
                    </g>
                    <g transform="matrix(1,0,0,1,1213.44,-72.6995)">
                        <path d="M87.321,832.888L87.321,840.391L59.479,826.621L59.479,819.117L87.321,832.888ZM87.321,822.701L87.321,830.204L59.479,816.434L59.479,808.931L87.321,822.701ZM87.321,812.514L87.321,820.018L59.479,806.247L59.479,798.744L87.321,812.514Z" style="fill:rgb(255,149,0);"/>
                    </g>
                    <g transform="matrix(1,0,0,1,1213.44,-88.9345)">
                        <path d="M135.617,806.173L135.617,849.197L157.65,849.197C167.961,849.197 174.59,844.532 174.59,837.167C174.59,831.705 171.214,827.409 165.936,826.304C170.416,825.015 173.239,821.394 173.239,817.037C173.239,810.408 166.795,806.173 156.73,806.173L135.617,806.173ZM148.322,815.748L156.055,815.748C158.571,815.748 160.167,817.098 160.167,819.308C160.167,821.578 158.571,823.051 156.055,823.051L148.322,823.051L148.322,815.748ZM148.322,831.766L156.055,831.766C159.307,831.766 161.333,833.239 161.333,835.572C161.333,838.088 159.307,839.684 156.055,839.684L148.322,839.684L148.322,831.766Z" style="fill:rgb(255,149,0);fill-rule:nonzero;"/>
                    </g>
                    <g transform="matrix(1,0,0,1,1213.44,-88.9336)">
                        <rect x="182.261" y="806.173" width="12.766" height="43.023" style="fill:rgb(255,149,0);"/>
                    </g>
                    <g transform="matrix(1,0,0,1,1213.44,-88.9345)">
                        <path d="M235.84,816.362L235.84,806.173L202.76,806.173L202.76,816.362L212.856,816.362L212.856,849.197L225.683,849.197L225.683,816.362L235.84,816.362Z" style="fill:rgb(255,149,0);fill-rule:nonzero;"/>
                    </g>
                    <g transform="matrix(1,0,0,1,1213.44,-88.7505)">
                        <path d="M263.5,805.621C250.182,805.621 240.362,814.889 240.362,827.409C240.362,840.113 249.998,849.565 263.071,849.565C269.576,849.565 276.634,846.312 281.299,841.279L273.934,833.424C270.988,836.431 266.999,838.395 263.685,838.395C257.854,838.395 253.435,833.608 253.435,827.286C253.435,820.965 257.854,816.239 263.685,816.239C267.244,816.239 271.234,818.51 273.934,821.947L281.299,813.232C276.941,808.567 270.006,805.621 263.5,805.621Z" style="fill:rgb(255,149,0);fill-rule:nonzero;"/>
                    </g>
                    <g transform="matrix(1,0,0,1,1213.44,-88.7505)">
                        <path d="M307.935,805.621C294.433,805.621 284.49,814.827 284.49,827.47C284.49,840.175 294.433,849.565 307.935,849.565C321.437,849.565 331.38,840.113 331.38,827.47C331.38,814.889 321.437,805.621 307.935,805.621ZM308.119,816.3C313.766,816.3 318.307,821.026 318.307,827.532C318.307,834.037 313.766,838.886 308.119,838.886C302.473,838.886 297.563,834.037 297.563,827.532C297.563,821.026 302.411,816.3 308.119,816.3Z" style="fill:rgb(255,149,0);fill-rule:nonzero;"/>
                    </g>
                    <g transform="matrix(1,0,0,1,1213.44,-88.9336)">
                        <rect x="338.622" y="806.173" width="12.766" height="43.023" style="fill:rgb(255,149,0);"/>
                    </g>
                    <g transform="matrix(1,0,0,1,1213.44,-88.9345)">
                        <path d="M399.935,849.197L399.935,806.173L388.274,806.173L388.274,830.232L370.046,806.173L359.121,806.173L359.121,849.197L370.843,849.197L370.843,825.261L389.071,849.197L399.935,849.197Z" style="fill:rgb(255,149,0);fill-rule:nonzero;"/>
                    </g>
                    <g transform="matrix(1,0,0,1,1213.44,-20.0835)">
                        <path d="M147.814,798.62L147.814,787.899L144.067,787.899L141.727,793.497L139.387,787.899L135.64,787.899L135.64,798.62L138.729,798.62L138.729,792.747L140.565,797.58L142.889,797.58L144.725,792.747L144.725,798.62L147.814,798.62Z" style="fill:white;fill-rule:nonzero;"/>
                    </g>
                    <g transform="matrix(1,0,0,1,1213.44,-20.0835)">
                        <path d="M157.25,797.106L157.786,798.62L161.563,798.62L157.205,787.899L153.565,787.899L149.038,798.62L152.678,798.62L153.228,797.106L157.25,797.106ZM156.379,794.567L154.146,794.567L155.278,791.432L156.379,794.567Z" style="fill:white;fill-rule:nonzero;"/>
                    </g>
                    <g transform="matrix(1,0,0,1,1213.44,-20.0375)">
                        <path d="M169.409,792.931L169.409,795.424C168.889,795.638 168.369,795.775 168.002,795.775C166.61,795.775 165.586,794.705 165.586,793.221C165.586,791.768 166.595,790.698 167.972,790.698C168.859,790.698 169.899,791.141 170.617,791.83L172.621,789.398C171.474,788.388 169.654,787.746 167.987,787.746C164.484,787.746 161.946,790.056 161.946,793.221C161.946,796.403 164.393,798.727 167.757,798.727C169.287,798.727 171.26,798.146 172.453,797.351L172.453,792.931L169.409,792.931Z" style="fill:white;fill-rule:nonzero;"/>
                    </g>
                    <g transform="matrix(1,0,0,1,1213.44,-20.0835)">
                        <path d="M181.675,797.106L182.21,798.62L185.988,798.62L181.629,787.899L177.989,787.899L173.462,798.62L177.102,798.62L177.653,797.106L181.675,797.106ZM180.803,794.567L178.57,794.567L179.702,791.432L180.803,794.567Z" style="fill:white;fill-rule:nonzero;"/>
                    </g>
                    <g transform="matrix(1,0,0,1,1213.44,-20.0835)">
                        <path d="M196.48,790.117L196.48,787.899L186.936,787.899L186.936,790.622L191.754,790.622L186.753,796.403L186.753,798.62L196.587,798.62L196.587,795.898L191.478,795.898L196.48,790.117Z" style="fill:white;fill-rule:nonzero;"/>
                    </g>
                    <g transform="matrix(1,0,0,1,1213.44,-20.0836)">
                        <rect x="198.269" y="787.899" width="3.548" height="10.721" style="fill:white;"/>
                    </g>
                    <g transform="matrix(1,0,0,1,1213.44,-20.0835)">
                        <path d="M214.374,798.62L214.374,787.899L211.162,787.899L211.162,793.405L206.925,787.899L203.958,787.899L203.958,798.62L207.185,798.62L207.185,793.145L211.407,798.62L214.374,798.62Z" style="fill:white;fill-rule:nonzero;"/>
                    </g>
                    <g transform="matrix(1,0,0,1,1213.44,-20.0835)">
                        <path d="M225.584,790.591L225.584,787.899L216.515,787.899L216.515,798.62L225.722,798.62L225.722,795.929L220.063,795.929L220.063,794.598L225.079,794.598L225.079,791.906L220.063,791.906L220.063,790.591L225.584,790.591Z" style="fill:white;fill-rule:nonzero;"/>
                    </g>
                </g>
            </g>
        </g>
    </g>
</svg>
