<?xml version="1.0" encoding="utf-8"?>
<svg viewBox="0 0 612 163" fill="none" xmlns="http://www.w3.org/2000/svg">
  <defs>
    <linearGradient id="paint0_linear_72_585" x1="132.541" y1="34.3093" x2="202.311" y2="156.918" gradientUnits="userSpaceOnUse" gradientTransform="matrix(1, 0, 0, 1, -129.985901, 4.441432)">
      <stop offset="0.01" stop-color="#F6B360"/>
      <stop offset="1" stop-color="#F36C64"/>
    </linearGradient>
    <linearGradient id="paint1_linear_72_585" x1="179.351" y1="7.62862" x2="249.151" y2="130.297" gradientUnits="userSpaceOnUse" gradientTransform="matrix(1, 0, 0, 1, -129.985901, 4.441432)">
      <stop offset="0.01" stop-color="#F6B360"/>
      <stop offset="1" stop-color="#F36C64"/>
    </linearGradient>
    <linearGradient id="paint2_linear_72_585" x1="221.33" y1="12.7441" x2="259.459" y2="79.7416" gradientUnits="userSpaceOnUse" gradientTransform="matrix(1, 0, 0, 1, -129.985901, 4.441432)">
      <stop stop-color="#F14A66"/>
      <stop offset="0.99" stop-color="#F03367"/>
    </linearGradient>
  </defs>
  <path d="M 66.465 153.071 C 72.795 156.679 80.605 156.659 86.925 153.042 L 100.385 145.334 L 52.505 118.102 C 38.035 109.872 29.125 94.655 29.125 78.185 L 29.125 23.671 L 15.615 31.309 C 9.275 34.897 5.365 41.55 5.365 48.755 L 5.365 91.54 C 5.365 108.098 14.325 123.395 28.875 131.674 L 66.465 153.061 L 66.465 153.071 Z" fill="url(#paint0_linear_72_585)"/>
  <path d="M 84.095 9.31 C 76.515 12.711 70.925 19.669 69.515 28.027 C 69.295 29.358 69.175 30.718 69.175 32.098 L 69.175 68.467 C 69.175 72.656 70.315 76.677 72.375 80.176 C 74.415 83.675 77.395 86.651 81.065 88.751 L 92.465 95.226 C 98.205 98.479 104.865 100.341 111.965 100.341 C 123.215 100.341 133.355 95.67 140.505 88.189 L 140.505 109.103 C 140.505 113.262 139.375 117.264 137.345 120.753 C 135.295 124.262 132.325 127.248 128.645 129.347 C 121.305 133.526 112.265 133.526 104.925 129.347 L 80.595 115.509 L 62.895 105.436 C 52.095 99.297 45.435 87.933 45.435 75.642 L 45.435 27.82 C 45.435 23.641 46.565 19.62 48.615 16.131 C 50.655 12.632 53.625 9.655 57.295 7.576 C 64.645 3.397 73.685 3.397 81.015 7.576 L 84.085 9.32 L 84.095 9.31 Z" fill="url(#paint1_linear_72_585)"/>
  <path d="M 123.044 31.477 C 133.844 37.617 140.504 48.981 140.504 61.272 L 140.504 61.311 C 140.504 76.5 128.444 89.244 113.054 89.815 C 110.124 89.924 107.294 89.598 104.614 88.889 C 111.674 84.976 116.754 77.584 116.754 68.447 C 116.754 62.277 114.294 56.452 110.064 52.145 C 108.554 50.598 106.814 49.247 104.874 48.153 L 79.834 33.902 L 79.834 32.167 C 79.834 24.095 86.474 17.56 94.654 17.56 C 97.174 17.56 99.544 18.171 101.614 19.265 L 123.054 31.467 L 123.044 31.477 Z" fill="url(#paint2_linear_72_585)"/>
  <path d="M 188.21 93.52 L 188.21 37.626 L 175 37.626 L 175 100.538 C 175 103.554 177.48 105.998 180.54 105.998 L 220.7 105.998 L 220.7 93.51 L 188.21 93.51 L 188.21 93.52 Z" fill="white" style="transform-origin: 386px 79.692px;"/>
  <path d="M 232.78 36 C 228.93 36 225.62 39.252 225.62 43.057 C 225.62 46.861 228.93 50.114 232.78 50.114 C 236.63 50.114 239.94 46.861 239.94 43.057 C 239.94 39.252 236.63 36 232.78 36 Z M 226.17 56.077 L 226.17 106.008 L 238.84 106.008 L 238.84 56.077 L 226.17 56.077 Z" fill="white" style="transform-origin: 386px 79.692px;"/>
  <path d="M 289.68 56.076 C 287.94 56.076 286.37 57.082 285.67 58.649 L 284.62 60.965 C 283.41 59.989 282.2 59.014 280.77 58.255 C 278.24 56.954 274.71 55.544 270.31 55.544 C 257.64 55.544 246.63 66.287 246.63 81.052 C 246.63 95.816 257.64 106.559 270.31 106.559 C 274.39 106.559 277.69 105.367 280 104.174 C 281.32 103.415 282.53 102.656 283.52 101.681 L 283.52 117.923 C 283.52 120.939 286 123.384 289.06 123.384 L 296.18 123.384 L 296.18 56.086 L 289.68 56.086 L 289.68 56.076 Z M 271.96 94.604 C 264.8 94.604 259.29 89.291 259.29 81.042 C 259.29 72.792 264.79 67.47 271.96 67.47 C 279.13 67.47 284.62 72.792 284.62 81.042 C 284.62 89.291 279.12 94.604 271.96 94.604 Z" fill="white" style="transform-origin: 386px 79.692px;"/>
  <path d="M 340.52 56.076 L 340.52 83.752 C 340.52 90.267 336.22 94.604 330.06 94.604 C 323.9 94.604 319.6 90.267 319.6 83.752 L 319.6 56.076 L 306.93 56.076 L 306.93 85.379 C 306.93 98.398 315.3 106.55 327.3 106.55 C 331.37 106.55 335 105.249 337.54 103.839 C 338.97 103.08 340.4 102.104 341.62 101.129 L 342.66 103.445 C 343.36 105.002 344.94 106.017 346.68 106.017 L 353.18 106.017 L 353.18 56.086 L 340.52 56.086 L 340.52 56.076 Z" fill="white" style="transform-origin: 386px 79.692px;"/>
  <path d="M 370.76 36 C 366.91 36 363.6 39.252 363.6 43.057 C 363.6 46.861 366.9 50.114 370.76 50.114 C 374.62 50.114 377.92 46.861 377.92 43.057 C 377.92 39.252 374.62 36 370.76 36 Z M 364.16 56.077 L 364.16 106.008 L 376.82 106.008 L 376.82 56.077 L 364.16 56.077 Z" fill="white" style="transform-origin: 386px 79.692px;"/>
  <path d="M 421.51 43.096 L 421.51 60.423 C 420.52 59.546 419.31 58.797 417.99 58.038 C 415.68 56.845 412.37 55.544 408.3 55.544 C 395.63 55.544 384.62 66.288 384.62 81.052 C 384.62 95.816 395.63 106.56 408.3 106.56 C 412.7 106.56 416.23 105.259 418.76 103.849 C 420.19 103.09 421.4 102.114 422.61 101.139 L 423.65 103.445 C 424.36 105.012 425.93 106.017 427.67 106.017 L 434.17 106.017 L 434.17 37.646 L 427.05 37.646 C 423.99 37.646 421.51 40.09 421.51 43.106 L 421.51 43.096 Z M 409.95 94.604 C 402.79 94.604 397.29 89.292 397.29 81.042 C 397.29 72.793 402.79 67.47 409.95 67.47 C 417.11 67.47 422.62 72.793 422.62 81.042 C 422.62 89.292 417.11 94.604 409.95 94.604 Z" fill="white" style="transform-origin: 386px 79.692px;"/>
  <path d="M 451.75 36 C 447.9 36 444.59 39.252 444.59 43.057 C 444.59 46.861 447.89 50.114 451.75 50.114 C 455.61 50.114 458.91 46.861 458.91 43.057 C 458.91 39.252 455.61 36 451.75 36 Z M 445.15 56.077 L 445.15 106.008 L 457.81 106.008 L 457.81 56.077 L 445.15 56.077 Z" fill="white" style="transform-origin: 386px 79.692px;"/>
  <path d="M 501.82 56.076 L 501.82 83.752 C 501.82 90.267 497.53 94.604 491.36 94.604 C 485.19 94.604 480.9 90.267 480.9 83.752 L 480.9 56.076 L 468.24 56.076 L 468.24 85.379 C 468.24 98.398 476.61 106.55 488.61 106.55 C 492.69 106.55 496.32 105.249 498.85 103.839 C 500.28 103.08 501.71 102.104 502.92 101.129 L 503.96 103.445 C 504.67 105.002 506.24 106.017 507.98 106.017 L 514.48 106.017 L 514.48 56.086 L 501.81 56.086 L 501.82 56.076 Z" fill="white" style="transform-origin: 386px 79.692px;"/>
  <path d="M 578.3 55.544 C 573.9 55.544 570.15 57.17 567.51 58.797 C 565.97 59.772 564.65 60.857 563.43 62.049 C 562.66 60.857 561.56 59.772 560.24 58.797 C 557.93 57.17 554.29 55.544 549.12 55.544 C 545.49 55.544 542.51 56.954 540.42 58.255 C 539.21 59.014 538 59.989 537.01 60.965 L 535.97 58.659 C 535.27 57.092 533.69 56.086 531.95 56.086 L 525.45 56.086 L 525.45 106.017 L 538.12 106.017 L 538.12 77.257 C 538.12 71.176 541.97 67.49 546.38 67.49 C 550.79 67.49 554.64 71.176 554.64 77.257 L 554.64 106.017 L 567.3 106.017 L 567.3 77.257 C 567.3 71.176 571.15 67.49 575.56 67.49 C 579.97 67.49 583.82 71.176 583.82 77.257 L 583.82 106.017 L 596.48 106.017 L 596.48 76.173 C 596.48 62.601 589.32 55.554 578.31 55.554 L 578.3 55.544 Z" fill="white" style="transform-origin: 386px 79.692px;"/>
</svg>