<svg width="422" height="273" viewBox="0 0 422 273" fill="none" xmlns="http://www.w3.org/2000/svg">
<path d="M196.451 148.63C202.781 152.238 210.591 152.218 216.911 148.601L230.371 140.893L182.491 113.661C168.021 105.431 159.111 90.2131 159.111 73.7436V19.2295L145.601 26.868C139.261 30.4556 135.351 37.1085 135.351 44.3133V87.0986C135.351 103.657 144.311 118.954 158.861 127.233L196.451 148.62V148.63Z" fill="url(#paint0_linear_72_585)"/>
<path d="M214.081 4.86892C206.501 8.26927 200.911 15.2277 199.501 23.5857C199.281 24.9162 199.161 26.2764 199.161 27.6562V64.0252C199.161 68.2141 200.301 72.2354 202.361 75.7343C204.401 79.2332 207.381 82.2098 211.051 84.3091L222.451 90.7846C228.191 94.0371 234.851 95.8999 241.951 95.8999C253.201 95.8999 263.341 91.2281 270.491 83.7473V104.662C270.491 108.821 269.361 112.823 267.331 116.312C265.281 119.821 262.311 122.807 258.631 124.906C251.291 129.085 242.251 129.085 234.911 124.906L210.581 111.068L192.881 100.995C182.081 94.8551 175.421 83.4911 175.421 71.2005V23.3787C175.421 19.1997 176.551 15.1784 178.601 11.6893C180.641 8.19042 183.611 5.21388 187.281 3.13424C194.631 -1.04475 203.671 -1.04475 211.001 3.13424L214.071 4.87878L214.081 4.86892Z" fill="url(#paint1_linear_72_585)"/>
<path d="M253.03 27.0355C263.83 33.1758 270.49 44.5399 270.49 56.8305V56.8699C270.49 72.0582 258.43 84.8021 243.04 85.3737C240.11 85.4822 237.28 85.1569 234.6 84.4473C241.66 80.5344 246.74 73.1423 246.74 64.0057C246.74 57.8358 244.28 52.0108 240.05 47.7037C238.54 46.1563 236.8 44.806 234.86 43.712L209.82 29.4601V27.7254C209.82 19.6532 216.46 13.1187 224.64 13.1187C227.16 13.1187 229.53 13.7297 231.6 14.8238L253.04 27.0256L253.03 27.0355Z" fill="url(#paint2_linear_72_585)"/>
<path d="M13.21 243.032V187.138H0V250.05C0 253.066 2.48 255.51 5.54 255.51H45.7V243.022H13.21V243.032Z" fill="white"/>
<path d="M57.7801 185.512C53.9301 185.512 50.6201 188.764 50.6201 192.569C50.6201 196.373 53.9301 199.626 57.7801 199.626C61.6301 199.626 64.9401 196.373 64.9401 192.569C64.9401 188.764 61.6301 185.512 57.7801 185.512ZM51.1701 205.589V255.52H63.8401V205.589H51.1701Z" fill="white"/>
<path d="M114.68 205.588C112.94 205.588 111.37 206.594 110.67 208.161L109.62 210.477C108.41 209.501 107.2 208.526 105.77 207.767C103.24 206.466 99.7099 205.056 95.3099 205.056C82.6399 205.056 71.6299 215.799 71.6299 230.564C71.6299 245.328 82.6399 256.071 95.3099 256.071C99.3899 256.071 102.69 254.879 105 253.686C106.32 252.927 107.53 252.168 108.52 251.193V267.435C108.52 270.451 111 272.896 114.06 272.896H121.18V205.598H114.68V205.588ZM96.9599 244.116C89.7999 244.116 84.2899 238.803 84.2899 230.554C84.2899 222.304 89.7899 216.982 96.9599 216.982C104.13 216.982 109.62 222.304 109.62 230.554C109.62 238.803 104.12 244.116 96.9599 244.116Z" fill="white"/>
<path d="M165.52 205.588V233.264C165.52 239.779 161.22 244.116 155.06 244.116C148.9 244.116 144.6 239.779 144.6 233.264V205.588H131.93V234.891C131.93 247.91 140.3 256.062 152.3 256.062C156.37 256.062 160 254.761 162.54 253.351C163.97 252.592 165.4 251.616 166.62 250.641L167.66 252.957C168.36 254.514 169.94 255.529 171.68 255.529H178.18V205.598H165.52V205.588Z" fill="white"/>
<path d="M195.76 185.512C191.91 185.512 188.6 188.764 188.6 192.569C188.6 196.373 191.9 199.626 195.76 199.626C199.62 199.626 202.92 196.373 202.92 192.569C202.92 188.764 199.62 185.512 195.76 185.512ZM189.16 205.589V255.52H201.82V205.589H189.16Z" fill="white"/>
<path d="M246.51 192.608V209.935C245.52 209.058 244.31 208.309 242.99 207.55C240.68 206.357 237.37 205.056 233.3 205.056C220.63 205.056 209.62 215.8 209.62 230.564C209.62 245.328 220.63 256.072 233.3 256.072C237.7 256.072 241.23 254.771 243.76 253.361C245.19 252.602 246.4 251.626 247.61 250.651L248.65 252.957C249.36 254.524 250.93 255.529 252.67 255.529H259.17V187.158H252.05C248.99 187.158 246.51 189.602 246.51 192.618V192.608ZM234.95 244.116C227.79 244.116 222.29 238.804 222.29 230.554C222.29 222.305 227.79 216.982 234.95 216.982C242.11 216.982 247.62 222.305 247.62 230.554C247.62 238.804 242.11 244.116 234.95 244.116Z" fill="white"/>
<path d="M276.75 185.512C272.9 185.512 269.59 188.764 269.59 192.569C269.59 196.373 272.89 199.626 276.75 199.626C280.61 199.626 283.91 196.373 283.91 192.569C283.91 188.764 280.61 185.512 276.75 185.512ZM270.15 205.589V255.52H282.81V205.589H270.15Z" fill="white"/>
<path d="M326.82 205.588V233.264C326.82 239.779 322.53 244.116 316.36 244.116C310.19 244.116 305.9 239.779 305.9 233.264V205.588H293.24V234.891C293.24 247.91 301.61 256.062 313.61 256.062C317.69 256.062 321.32 254.761 323.85 253.351C325.28 252.592 326.71 251.616 327.92 250.641L328.96 252.957C329.67 254.514 331.24 255.529 332.98 255.529H339.48V205.598H326.81L326.82 205.588Z" fill="white"/>
<path d="M403.3 205.056C398.9 205.056 395.15 206.682 392.51 208.309C390.97 209.284 389.65 210.369 388.43 211.561C387.66 210.369 386.56 209.284 385.24 208.309C382.93 206.682 379.29 205.056 374.12 205.056C370.49 205.056 367.51 206.466 365.42 207.767C364.21 208.526 363 209.501 362.01 210.477L360.97 208.171C360.27 206.604 358.69 205.598 356.95 205.598H350.45V255.529H363.12V226.769C363.12 220.688 366.97 217.002 371.38 217.002C375.79 217.002 379.64 220.688 379.64 226.769V255.529H392.3V226.769C392.3 220.688 396.15 217.002 400.56 217.002C404.97 217.002 408.82 220.688 408.82 226.769V255.529H421.48V225.685C421.48 212.113 414.32 205.066 403.31 205.066L403.3 205.056Z" fill="white"/>
<defs>
<linearGradient id="paint0_linear_72_585" x1="132.541" y1="34.3093" x2="202.311" y2="156.918" gradientUnits="userSpaceOnUse">
<stop offset="0.01" stop-color="#F6B360"/>
<stop offset="1" stop-color="#F36C64"/>
</linearGradient>
<linearGradient id="paint1_linear_72_585" x1="179.351" y1="7.62862" x2="249.151" y2="130.297" gradientUnits="userSpaceOnUse">
<stop offset="0.01" stop-color="#F6B360"/>
<stop offset="1" stop-color="#F36C64"/>
</linearGradient>
<linearGradient id="paint2_linear_72_585" x1="221.33" y1="12.7441" x2="259.459" y2="79.7416" gradientUnits="userSpaceOnUse">
<stop stop-color="#F14A66"/>
<stop offset="0.99" stop-color="#F03367"/>
</linearGradient>
</defs>
</svg>
