<svg width="216" height="31" viewBox="0 0 216 31" fill="none" xmlns="http://www.w3.org/2000/svg">
<g id="Group 161">
<path id="Vector" d="M37.6811 4.2255C40.332 5.34759 42.3737 7.33134 43.6292 9.72663C43.9957 10.4259 44.2947 11.1606 44.5214 11.9194C44.6419 12.3213 44.7416 12.728 44.8204 13.1395C44.941 13.7681 45.0149 14.4079 45.0358 15.0525L38.2534 12.1814C37.8564 12.0126 37.4127 12.003 37.0076 12.1509L33.9564 13.2681L58.4559 23.6402L57.0139 20.5521V20.5472L56.956 20.4267C56.8338 20.1646 56.62 19.9572 56.3564 19.8463L49.6142 16.9913C48.5741 16.5508 47.9085 15.575 47.7992 14.5076C47.7992 14.5076 47.7992 14.5076 47.7992 14.506C47.7912 14.44 47.7864 14.3741 47.7848 14.3066C47.7574 13.9529 47.7172 13.6009 47.6658 13.252C47.6128 12.8887 47.5452 12.5286 47.4665 12.1718C47.2028 10.987 46.8025 9.84077 46.272 8.75887C44.7448 5.63695 42.1518 3.04232 38.747 1.60033C33.8037 -0.492737 28.3813 0.368923 24.3672 3.38795L27.5132 4.72063C30.5499 3.07608 34.2554 2.77868 37.6795 4.22872L37.6811 4.2255Z" fill="white"/>
<path id="Vector_2" d="M59.9449 26.8385L59.3807 25.6312C59.1974 25.2374 58.8775 24.9271 58.482 24.7615L0 0L0.0417961 0.0868093L0.855231 1.81978L1.42431 3.03189C1.60758 3.42414 1.92748 3.73279 2.32134 3.89998L43.5541 21.3583C43.3901 21.6621 43.2165 21.9563 43.03 22.2408C42.5091 23.0398 41.9047 23.76 41.2327 24.3966C37.9179 27.5378 32.9875 28.6084 28.5361 26.7244C25.9045 25.6103 23.8709 23.6458 22.6138 21.2715C22.0495 20.204 21.6412 19.0562 21.4065 17.8634C21.2795 17.222 21.2039 16.5677 21.1814 15.907L28.0233 18.8038C28.4203 18.9726 28.864 18.9823 29.2691 18.8344L32.3332 17.7123L7.68904 7.2775L9.10049 10.3014C9.28376 10.6952 9.60366 11.0055 9.99913 11.1727L16.7252 14.0197C17.6624 14.473 18.2717 15.3652 18.4116 16.3539C18.4116 16.3683 18.4116 16.3844 18.4148 16.4005C18.4148 16.4005 18.4148 16.4021 18.4148 16.4037C18.4277 16.5114 18.4373 16.6175 18.4389 16.7252C18.4389 16.7284 18.4389 16.7301 18.4389 16.7333C18.4389 16.7461 18.4421 16.759 18.4421 16.7719C18.5016 17.4679 18.6077 18.1576 18.7604 18.8344C19.0273 20.0159 19.4324 21.1621 19.9677 22.2424C21.4981 25.3418 24.0815 27.9188 27.4687 29.3527C33.3685 31.8509 39.9499 30.1405 44.009 25.5733C44.6135 24.8933 45.1617 24.1506 45.6439 23.3484C45.8175 23.0575 45.9847 22.7601 46.1407 22.4546L60.7937 28.6583L59.9449 26.8401V26.8385Z" fill="white"/>
<path id="Vector_3" d="M75.8287 29.5535C74.2709 28.9057 73.0347 27.9797 72.1184 26.7756C71.2037 25.5699 70.6844 24.144 70.5639 22.4946L70.543 22.2133L74.0893 22.2069L74.1295 22.4882C74.2758 23.4528 74.6648 24.2871 75.2966 24.9896C75.9284 25.6921 76.7675 26.2339 77.8124 26.6149C78.8574 26.9942 80.063 27.1839 81.4295 27.1807C82.7959 27.1775 83.9775 26.9782 84.9758 26.5811C85.9725 26.184 86.7441 25.6166 87.2875 24.8771C87.8309 24.1392 88.1025 23.2727 88.1009 22.2808V22.2615C88.0993 20.9883 87.6637 19.9691 86.7956 19.2071C85.9275 18.4452 84.5144 17.8439 82.5548 17.4051L79.4007 16.7074C76.6277 16.082 74.5732 15.1175 73.2373 13.8121C71.9014 12.5068 71.231 10.7963 71.2278 8.67752V8.65823C71.2374 7.0619 71.6683 5.65688 72.5203 4.44155C73.3723 3.22622 74.5491 2.27293 76.0521 1.57846C77.5552 0.885591 79.2785 0.536746 81.2221 0.533531C83.074 0.530316 84.7298 0.866299 86.1895 1.53987C87.6492 2.21506 88.8163 3.15388 89.6924 4.35956C90.5686 5.56525 91.0605 6.95902 91.1682 8.54087L91.1891 8.8431L87.6428 8.84953L87.6026 8.5682C87.4563 7.57633 87.0994 6.73235 86.5335 6.03627C85.9677 5.34019 85.2266 4.80486 84.3135 4.43191C83.4004 4.05895 82.3378 3.87247 81.1305 3.87408C79.8701 3.87568 78.7657 4.07342 77.8221 4.46406C76.8768 4.8547 76.1454 5.39967 75.6277 6.09736C75.1101 6.79504 74.8529 7.61491 74.8545 8.55212V8.57142C74.8561 9.75138 75.2982 10.7224 76.1807 11.486C77.0617 12.2479 78.4297 12.8363 80.2833 13.2479L83.4373 13.9455C85.3825 14.3716 86.9628 14.9374 88.1797 15.6464C89.3966 16.3553 90.2905 17.2346 90.8644 18.286C91.4383 19.3374 91.726 20.6009 91.7292 22.0751V22.0944C91.7324 23.8112 91.3113 25.2999 90.4673 26.5618C89.6217 27.8238 88.416 28.7979 86.847 29.4844C85.278 30.1708 83.41 30.5164 81.243 30.5213C79.1933 30.5245 77.3896 30.203 75.8319 29.5567L75.8287 29.5535Z" fill="white"/>
<path id="Vector_4" d="M104.137 0.968568L106.758 0.963745L106.766 5.30742H105.859L97.3341 30.0046L93.6094 30.011L104.136 0.968568H104.137ZM99.6185 18.6165L112.23 18.5924L113.418 21.6677L98.4418 21.6951L99.6185 18.6149V18.6165ZM105.938 5.31063L105.93 0.96696L107.644 0.963745L118.26 29.9676L114.535 29.9741L105.936 5.31063H105.938Z" fill="white"/>
<path id="Vector_5" d="M124.718 4.1888L115.753 4.20487L115.746 0.946317L137.225 0.906128L137.231 4.16469L128.266 4.18237L128.314 29.947L124.768 29.9534L124.72 4.1888H124.718Z" fill="white"/>
<path id="Vector_6" d="M146.272 29.0493C144.583 28.1539 143.282 26.9064 142.374 25.3052C141.464 23.7041 141.007 21.8522 141.004 19.7462L140.969 0.900602L144.515 0.894172L144.55 19.4987C144.554 20.9873 144.861 22.2975 145.475 23.4292C146.087 24.5609 146.973 25.4483 148.131 26.0897C149.288 26.7311 150.687 27.0511 152.329 27.0478C153.971 27.0446 155.366 26.7199 156.516 26.0753C157.663 25.429 158.54 24.54 159.141 23.4051C159.744 22.2717 160.043 20.9599 160.039 19.4713L160.004 0.866843L163.55 0.860413L163.586 19.706C163.589 21.812 163.144 23.6655 162.247 25.2699C161.35 26.8742 160.062 28.1265 158.382 29.0284C156.702 29.9302 154.686 30.3836 152.334 30.3868C149.982 30.3916 147.962 29.9463 146.272 29.0509V29.0493Z" fill="white"/>
<path id="Vector_7" d="M169.066 0.845911L179.726 0.826621C181.552 0.823406 183.146 1.17868 184.507 1.89405C185.867 2.60942 186.925 3.61255 187.676 4.90504C188.426 6.19753 188.804 7.71509 188.807 9.45931V9.4995C188.811 11.5106 188.306 13.2516 187.29 14.7225C186.274 16.1918 184.88 17.2175 183.109 17.7978L189.713 29.8337L185.555 29.8418L179.445 18.3685C179.405 18.3685 179.369 18.3685 179.337 18.3685C179.305 18.3685 179.268 18.3685 179.23 18.3685L172.648 18.3814L172.669 29.8659L169.123 29.8723L169.068 0.849127L169.066 0.845911ZM179.438 15.1678C181.265 15.1646 182.673 14.6791 183.663 13.7113C184.653 12.7436 185.147 11.3691 185.144 9.5847V9.54451C185.141 7.81476 184.615 6.46439 183.57 5.49502C182.523 4.52565 181.088 4.04177 179.262 4.04499L172.621 4.05785L172.642 15.1807L179.44 15.1678H179.438Z" fill="white"/>
<path id="Vector_8" d="M193.246 0.801868L196.694 0.795438L215.407 28.0937L210.905 23.6777L212.482 23.6745L212.439 0.766501L215.947 0.760071L216.001 29.7833L212.553 29.7897L193.841 2.49143L198.342 6.90745L196.765 6.91066L196.808 29.8186L193.301 29.8251L193.246 0.801868Z" fill="white"/>
</g>
</svg>
