<?xml version="1.0" encoding="UTF-8"?><svg id="Layer_1" xmlns="http://www.w3.org/2000/svg" viewBox="0 0 1472.01 309.36"><defs><style>.cls-1{fill:#fff;}.cls-2{fill:#ff3000;}</style></defs><path class="cls-2" d="m298.56,86.05c16.49,6.98,29.19,19.32,37,34.22,2.28,4.35,4.14,8.92,5.55,13.64.75,2.5,1.37,5.03,1.86,7.59.75,3.91,1.21,7.89,1.34,11.9l-42.19-17.86c-2.47-1.05-5.23-1.11-7.75-.19l-18.98,6.95,152.4,64.52-8.97-19.21v-.03s-.36-.75-.36-.75h0c-.76-1.63-2.09-2.92-3.73-3.61l-41.94-17.76c-6.47-2.74-10.61-8.81-11.29-15.45,0,0,0,0,0-.01-.05-.41-.08-.82-.09-1.24-.17-2.2-.42-4.39-.74-6.56-.33-2.26-.75-4.5-1.24-6.72-1.64-7.37-4.13-14.5-7.43-21.23-9.5-19.42-25.63-35.56-46.81-44.53-30.75-13.02-64.48-7.66-89.45,11.12l19.57,8.29c18.89-10.23,41.94-12.08,63.24-3.06Z"/><path class="cls-2" d="m437.08,226.7l-3.51-7.51c-1.14-2.45-3.13-4.38-5.59-5.41L64.19,59.75l.26.54,5.06,10.78,3.54,7.54c1.14,2.44,3.13,4.36,5.58,5.4l256.49,108.6c-1.02,1.89-2.1,3.72-3.26,5.49-3.24,4.97-7,9.45-11.18,13.41-20.62,19.54-51.29,26.2-78.98,14.48-16.37-6.93-29.02-19.15-36.84-33.92-3.51-6.64-6.05-13.78-7.51-21.2-.79-3.99-1.26-8.06-1.4-12.17l42.56,18.02c2.47,1.05,5.23,1.11,7.75.19l19.06-6.98L112.02,105.03l8.78,18.81c1.14,2.45,3.13,4.38,5.59,5.42l41.84,17.71c5.83,2.82,9.62,8.37,10.49,14.52,0,.09,0,.19.02.29,0,0,0,.01,0,.02.08.67.14,1.33.15,2,0,.02,0,.03,0,.05,0,.08.02.16.02.24.37,4.33,1.03,8.62,1.98,12.83,1.66,7.35,4.18,14.48,7.51,21.2,9.52,19.28,25.59,35.31,46.66,44.23,36.7,15.54,77.64,4.9,102.89-23.51,3.76-4.23,7.17-8.85,10.17-13.84,1.08-1.81,2.12-3.66,3.09-5.56l91.15,38.59-5.28-11.31Z"/><path class="cls-1" d="m535.87,243.6c-9.69-4.03-17.38-9.79-23.08-17.29-5.69-7.5-8.92-16.37-9.67-26.63l-.12-1.75,22.06-.04.25,1.75c.91,6,3.33,11.19,7.26,15.56,3.93,4.37,9.15,7.74,15.65,10.1,6.5,2.36,14,3.54,22.5,3.52,8.5-.02,15.85-1.26,22.06-3.73,6.21-2.47,11-6,14.38-10.6,3.38-4.59,5.07-9.98,5.06-16.15v-.12c-.01-7.92-2.72-14.26-8.12-19-5.4-4.74-14.2-8.48-26.38-11.21l-19.62-4.34c-17.25-3.89-30.03-9.89-38.34-18.01-8.31-8.12-12.48-18.76-12.5-31.94v-.13c.06-9.93,2.74-18.67,8.04-26.23,5.3-7.56,12.62-13.49,21.97-17.81,9.35-4.31,20.07-6.48,32.16-6.5,11.52-.02,21.82,2.07,30.9,6.26,9.08,4.2,16.34,10.04,21.79,17.54,5.45,7.5,8.51,16.17,9.18,26.01l.13,1.88-22.06.04-.25-1.75c-.91-6.17-3.13-11.42-6.65-15.75-3.52-4.33-8.13-7.66-13.81-9.98-5.69-2.32-12.29-3.48-19.8-3.47-7.84.01-14.71,1.24-20.59,3.67-5.88,2.43-10.43,5.82-13.65,10.16-3.22,4.34-4.82,9.44-4.81,15.27v.12c.01,7.34,2.76,13.38,8.25,18.13,5.48,4.74,13.99,8.4,25.52,10.96l19.62,4.34c12.1,2.65,21.93,6.17,29.5,10.58,7.57,4.41,13.13,9.88,16.7,16.42,3.57,6.54,5.36,14.4,5.38,23.57v.12c.02,10.68-2.6,19.94-7.85,27.79-5.26,7.85-12.76,13.91-22.52,18.18-9.76,4.27-21.38,6.42-34.86,6.45-12.75.02-23.97-1.98-33.66-6Z"/><path class="cls-1" d="m711.98,65.79l16.3-.03.05,27.02h-5.64s-53.03,153.63-53.03,153.63l-23.17.04,65.48-180.66Zm-28.11,109.78l78.45-.15,7.39,19.13-93.16.17,7.32-19.16Zm39.31-82.77l-.05-27.02,10.66-.02,66.04,180.42-23.17.04-53.49-153.42Z"/><path class="cls-1" d="m839.99,85.82l-55.77.1-.04-20.27,133.61-.25.04,20.27-55.77.1.3,160.27-22.06.04-.3-160.27Z"/><path class="cls-1" d="m974.07,240.46c-10.51-5.57-18.6-13.33-24.25-23.29-5.66-9.96-8.5-21.48-8.52-34.58l-.22-117.23,22.06-.04.22,115.73c.02,9.26,1.93,17.41,5.75,24.45,3.81,7.04,9.32,12.56,16.52,16.55,7.2,3.99,15.9,5.98,26.12,5.96,10.21-.02,18.89-2.04,26.04-6.05,7.14-4.02,12.59-9.55,16.33-16.61,3.75-7.05,5.61-15.21,5.59-24.47l-.22-115.73,22.06-.04.22,117.23c.02,13.1-2.75,24.63-8.33,34.61-5.58,9.98-13.59,17.77-24.04,23.38-10.45,5.61-22.99,8.43-37.62,8.45-14.63.03-27.2-2.74-37.71-8.31Z"/><path class="cls-1" d="m1115.87,65.03l66.31-.12c11.36-.02,21.27,2.19,29.74,6.64,8.46,4.45,15.04,10.69,19.71,18.73,4.67,8.04,7.02,17.48,7.04,28.33v.25c.02,12.51-3.12,23.34-9.44,32.49-6.32,9.15-14.99,15.52-26.01,19.13l41.08,74.87-25.86.05-38.01-71.37c-.25,0-.47,0-.67,0-.21,0-.43,0-.67,0l-40.94.08.13,71.44-22.06.04-.34-180.54Zm64.52,89.09c11.36-.02,20.12-3.04,26.28-9.06,6.16-6.02,9.23-14.57,9.21-25.67v-.25c-.02-10.76-3.29-19.16-9.79-25.19-6.51-6.03-15.44-9.04-26.8-9.02l-41.31.08.13,69.19,42.29-.08Z"/><path class="cls-1" d="m1266.27,64.75l21.45-.04,116.4,169.81-28-27.47,9.81-.02-.27-142.51,21.82-.04.34,180.54-21.45.04-116.4-169.81,28,27.47-9.81.02.27,142.51-21.82.04-.34-180.54Z"/></svg>